<svg xmlns="http://www.w3.org/2000/svg" width="24.069" height="17.33" viewBox="0 0 24.069 17.33">
  <g id="noun-arrow-1788284" transform="translate(0)">
    <path id="Path_73119" data-name="Path 73119" d="M210,187.865a.883.883,0,0,1,.211-.6l6.258-7.7a.988.988,0,0,1,1.384-.144.948.948,0,0,1,.105,1.348l-4.979,6.138h20.128a.963.963,0,1,1,0,1.925H212.981l4.979,6.138a1,1,0,0,1-.13,1.405,1.066,1.066,0,0,1-1.36-.2l-6.258-7.7a.813.813,0,0,1-.211-.6Z" transform="translate(-210.002 -179.2)" fill="#1d1d1d"/>
  </g>
</svg>
