<svg xmlns="http://www.w3.org/2000/svg" width="38" height="38" viewBox="0 0 38 38">
  <g id="Group_13168" data-name="Group 13168" transform="translate(-15 -157.816)">
    <circle id="Ellipse_1416" data-name="Ellipse 1416" cx="19" cy="19" r="19" transform="translate(15 157.816)" fill="#fff"/>
    <g id="noun-dashboard-5054093" transform="translate(-49.991 161.644)">
      <path id="Path_73101" data-name="Path 73101" d="M77.944,7.593h2.975a2.36,2.36,0,0,1,2.354,2.354v2.975a2.36,2.36,0,0,1-2.354,2.354H77.944a2.36,2.36,0,0,1-2.354-2.354V9.947a2.36,2.36,0,0,1,2.354-2.354Zm8.935,8.813h2.975a2.36,2.36,0,0,1,2.354,2.354v2.975a2.36,2.36,0,0,1-2.354,2.354H86.879a2.36,2.36,0,0,1-2.354-2.354V18.76a2.36,2.36,0,0,1,2.354-2.354Zm2.975.779H86.879A1.581,1.581,0,0,0,85.3,18.759v2.975a1.581,1.581,0,0,0,1.575,1.575h2.975a1.581,1.581,0,0,0,1.575-1.575V18.759a1.581,1.581,0,0,0-1.575-1.575Zm-11.909-.779h2.975a2.36,2.36,0,0,1,2.354,2.354v2.975a2.36,2.36,0,0,1-2.354,2.354H77.944a2.36,2.36,0,0,1-2.354-2.354V18.76a2.36,2.36,0,0,1,2.354-2.354Zm2.975.779H77.944a1.581,1.581,0,0,0-1.575,1.575v2.975a1.581,1.581,0,0,0,1.575,1.575h2.975a1.581,1.581,0,0,0,1.575-1.575V18.759a1.581,1.581,0,0,0-1.575-1.575Zm5.96-9.592h2.975a2.36,2.36,0,0,1,2.354,2.354v2.975a2.36,2.36,0,0,1-2.354,2.354H86.879a2.36,2.36,0,0,1-2.354-2.354V9.947a2.36,2.36,0,0,1,2.354-2.354Zm2.975.779H86.879A1.581,1.581,0,0,0,85.3,9.946v2.975A1.581,1.581,0,0,0,86.879,14.5h2.975a1.581,1.581,0,0,0,1.575-1.575V9.946a1.581,1.581,0,0,0-1.575-1.575Zm-8.935,0H77.944a1.581,1.581,0,0,0-1.575,1.575v2.975A1.581,1.581,0,0,0,77.944,14.5h2.975a1.581,1.581,0,0,0,1.575-1.575V9.946a1.581,1.581,0,0,0-1.575-1.575Z" transform="translate(0 0)" fill="#1d1d1d" stroke="#1d1d1d" stroke-width="0.5"/>
    </g>
  </g>
</svg>
