<svg xmlns="http://www.w3.org/2000/svg" width="12.673" height="15.574" viewBox="0 0 12.673 15.574">
  <g id="noun-delete-1423428" transform="translate(-0.69 0)">
    <path id="Path_49772" data-name="Path 49772" d="M169.611,49.025l-.842-1.666a.586.586,0,0,0-.505-.318h-3.557a.552.552,0,0,0-.505.318l-.842,1.666h-3.2v1.123h.8V62.053a.552.552,0,0,0,.562.562h9.94a.552.552,0,0,0,.562-.562V50.148h.8V49.025Zm-4.567-.861h2.883l.43.861h-3.744ZM164.65,59.32a.562.562,0,0,1-1.123,0V52.712a.562.562,0,1,1,1.123,0Zm2.4,0a.562.562,0,0,1-1.123,0V52.712a.562.562,0,1,1,1.123,0Zm2.4,0a.563.563,0,0,1-.562.562.552.552,0,0,1-.562-.562V52.712a.562.562,0,1,1,1.123,0Z" transform="translate(-159.468 -47.041)" fill="#df2d16"/>
  </g>
</svg>
