<svg xmlns="http://www.w3.org/2000/svg" width="16.627" height="20.255" viewBox="0 0 16.627 20.255">
  <g id="noun-farmer-2047540" transform="translate(-139.837 -23.182)">
    <path id="Path_73102" data-name="Path 73102" d="M152.147,36.085a5.259,5.259,0,0,0,1.182-5.269c.69-.263,1.171-.626,1.171-1.134s-.516-.875-1.817-1.252c-.047-2.691-.709-5.1-4.532-5.1s-4.485,2.406-4.532,5.1c-1.3.377-1.817.739-1.817,1.253s.481.871,1.171,1.134a5.259,5.259,0,0,0,1.182,5.269c-2.586.26-4.168,1.745-4.168,4.028v2.721a.453.453,0,0,0,.454.454h15.42a.453.453,0,0,0,.454-.454V40.112c0-2.282-1.582-3.768-4.168-4.028Zm-7.132.869a7.189,7.189,0,0,0,3.136.891,6.993,6.993,0,0,0,3.089-.891Zm6.765,0a6.522,6.522,0,0,1,.907.125v5.3h-9.071v-5.3a6.523,6.523,0,0,1,.907-.125Zm-3.628-12.714c2.89,0,3.565,1.511,3.623,4.136h0a24.323,24.323,0,0,1-7.245,0c.058-2.625.732-4.136,3.623-4.136Zm-4.044,5a24.908,24.908,0,0,0,8.089,0,5.431,5.431,0,0,1,1.326.488c-.435.348-2.353.864-5.371.864-3.09,0-5.026-.54-5.392-.851a5.179,5.179,0,0,1,1.347-.5Zm-.269,1.839a22.344,22.344,0,0,0,8.628,0h0a4.487,4.487,0,0,1,.222,1.327,4.535,4.535,0,1,1-9.07,0,4.486,4.486,0,0,1,.222-1.327Zm-2.943,9.037a2.789,2.789,0,0,1,1.814-2.747V42.38h-1.814Zm14.513,2.268h-1.814V37.365a2.789,2.789,0,0,1,1.814,2.747Z" fill="#fff" stroke="#fff" stroke-width="0.3"/>
  </g>
</svg>
