<svg xmlns="http://www.w3.org/2000/svg" width="38" height="38" viewBox="0 0 38 38">
  <g id="Group_13175" data-name="Group 13175" transform="translate(-15 -531.84)">
    <circle id="Ellipse_1416" data-name="Ellipse 1416" cx="19" cy="19" r="19" transform="translate(15 531.84)" fill="#fff"/>
    <path id="Path_73108" data-name="Path 73108" d="M115.075,17.126v1.728a.9.9,0,0,0,1.81,0V14.9a.913.913,0,0,0-.9-.9h-3.921a.9.9,0,0,0,0,1.81h1.728l-4.744,4.771-2.221-2.221a.91.91,0,0,0-1.289,0l-6.005,6.005a.91.91,0,0,0,0,1.289,1.012,1.012,0,0,0,.658.274.891.891,0,0,0,.658-.274l5.347-5.347,2.221,2.221a.91.91,0,0,0,1.289,0Z" transform="translate(-74.059 533.442)" fill="#1d1d1d"/>
  </g>
</svg>
