<svg xmlns="http://www.w3.org/2000/svg" width="16.327" height="19.068" viewBox="0 0 16.327 19.068">
  <path id="noun-branch-4782732" d="M156.328,37.469a2.721,2.721,0,1,0-3.4,2.625v3.5a.68.68,0,0,1-.68.68h-8.163a.68.68,0,0,1-.68-.68v-3.5a2.721,2.721,0,1,0-1.361,0v3.5a2.041,2.041,0,0,0,2.041,2.041h3.4V48.45a2.721,2.721,0,1,0,1.361,0V45.632h3.4a2.041,2.041,0,0,0,2.041-2.041v-3.5a2.721,2.721,0,0,0,2.041-2.625Zm-14.966,0a1.36,1.36,0,1,1,.4.962A1.361,1.361,0,0,1,141.362,37.469Zm8.163,13.606a1.36,1.36,0,1,1-.4-.962A1.361,1.361,0,0,1,149.525,51.074Zm4.082-12.245a1.36,1.36,0,1,1,.962-.4A1.361,1.361,0,0,1,153.607,38.829Z" transform="translate(-140.001 -34.737)" fill="#fff"/>
</svg>
