<svg xmlns="http://www.w3.org/2000/svg" width="24" height="28.03" viewBox="0 0 24 28.03">
  <path id="noun-branch-4782732" d="M164,38.752a4,4,0,1,0-5,3.858v5.142a1,1,0,0,1-1,1H146a1,1,0,0,1-1-1V42.61a4,4,0,1,0-2,0v5.142a3,3,0,0,0,3,3h5v4.142a4,4,0,1,0,2,0V50.752h5a3,3,0,0,0,3-3V42.61a4,4,0,0,0,3-3.858Zm-22,0a2,2,0,1,1,.586,1.414A2,2,0,0,1,142,38.752Zm12,20a2,2,0,1,1-.586-1.414A2,2,0,0,1,154,58.752Zm6-18a2,2,0,1,1,1.414-.586A2,2,0,0,1,160,40.752Z" transform="translate(-140.001 -34.737)" fill="#0c7f00"/>
</svg>
