<svg xmlns="http://www.w3.org/2000/svg" width="22.494" height="27.426" viewBox="0 0 22.494 27.426">
  <g id="noun-farmer-2047540" transform="translate(-139.837 -23.182)">
    <path id="Path_73102" data-name="Path 73102" d="M156.516,40.668a7.149,7.149,0,0,0,1.607-7.162c.938-.358,1.592-.851,1.592-1.542s-.7-1.19-2.47-1.7c-.064-3.658-.964-6.929-6.161-6.929s-6.1,3.271-6.161,6.928c-1.769.513-2.47,1-2.47,1.7s.654,1.184,1.592,1.542a7.149,7.149,0,0,0,1.607,7.162c-3.515.354-5.665,2.373-5.665,5.475v3.7a.616.616,0,0,0,.617.617h20.961a.616.616,0,0,0,.617-.617v-3.7c0-3.1-2.15-5.121-5.665-5.475Zm-9.7,1.181a9.773,9.773,0,0,0,4.263,1.211,9.506,9.506,0,0,0,4.2-1.211Zm9.2,0a8.866,8.866,0,0,1,1.233.17v7.206h-12.33V42.019a8.867,8.867,0,0,1,1.233-.17Zm-4.932-17.283c3.929,0,4.846,2.054,4.924,5.622h0a33.064,33.064,0,0,1-9.849,0c.079-3.568,1-5.622,4.924-5.622Zm-5.5,6.792a34.325,34.325,0,0,0,5.5.449,34.334,34.334,0,0,0,5.5-.449,7.382,7.382,0,0,1,1.8.664c-.592.474-3.2,1.175-7.3,1.175-4.2,0-6.832-.734-7.329-1.157a7.041,7.041,0,0,1,1.832-.682Zm-.366,2.5a30.373,30.373,0,0,0,11.728,0h0a6.1,6.1,0,0,1,.3,1.8,6.165,6.165,0,1,1-12.33,0,6.1,6.1,0,0,1,.3-1.8Zm-4,12.285a3.791,3.791,0,0,1,2.466-3.735v6.817H141.22Zm19.728,3.082h-2.466V42.408a3.791,3.791,0,0,1,2.466,3.735Z" fill="#0c7f00" stroke="#0c7f00" stroke-width="0.3"/>
  </g>
</svg>
