<svg xmlns="http://www.w3.org/2000/svg" width="38" height="38" viewBox="0 0 38 38">
  <g id="Group_13171" data-name="Group 13171" transform="translate(-15 -317.824)">
    <circle id="Ellipse_1416" data-name="Ellipse 1416" cx="19" cy="19" r="19" transform="translate(15 317.824)" fill="#fff"/>
    <g id="noun-user-5020800" transform="translate(-73.014 327.21)">
      <path id="Path_73103" data-name="Path 73103" d="M141.728,18.387a.681.681,0,0,0,.681.681H155.23a.681.681,0,0,0,.681-.681V14.255a4.492,4.492,0,0,0-4.487-4.487h-5.209a4.492,4.492,0,0,0-4.487,4.487Zm1.361-4.132a3.129,3.129,0,0,1,3.125-3.125h5.211a3.128,3.128,0,0,1,3.123,3.125v3.451H143.09Zm1.386-9.912A4.344,4.344,0,1,0,148.82,0a4.349,4.349,0,0,0-4.344,4.344Zm7.326,0a2.982,2.982,0,1,1-2.982-2.982A2.985,2.985,0,0,1,151.8,4.344Z" transform="translate(-41.752)" fill="#1d1d1d"/>
    </g>
  </g>
</svg>
