<svg xmlns="http://www.w3.org/2000/svg" width="25.014" height="25" viewBox="0 0 25.014 25">
  <g id="noun-truck-3549571" transform="translate(-0.5 -0.5)">
    <path id="Path_73104" data-name="Path 73104" d="M25.514,12.749,20.9,5.058A2.584,2.584,0,0,0,18.7,3.81H14.743V3.064A2.562,2.562,0,0,0,12.179.5H3.064A2.562,2.562,0,0,0,.5,3.064V20.536H.527v.339a1.316,1.316,0,0,1-.014.231.834.834,0,0,0-.014.176A4.212,4.212,0,0,0,4.664,25.5h.054a4.212,4.212,0,0,0,4.056-3.066l.068-.244h8.315l.081.244a4.218,4.218,0,0,0,8.275-1.153,3.326,3.326,0,0,0-.027-.366l-.054-.38h.081ZM14.73,5.614h3.961a.827.827,0,0,1,.651.38L23,12.1H14.73ZM2.3,3.064a.758.758,0,0,1,.76-.76h9.1a.758.758,0,0,1,.76.76V12.1H2.3ZM6.428,22.991a2.459,2.459,0,0,1-1.709.705,2.408,2.408,0,1,1,1.709-.705Zm16.563,0a2.435,2.435,0,0,1-1.709.705,2.408,2.408,0,1,1,1.709-.705Zm.705-5.209-.488-.244a4.1,4.1,0,0,0-1.913-.461,4.216,4.216,0,0,0-4.056,3.052l-.081.258H8.842l-.068-.258a4.219,4.219,0,0,0-5.223-2.889,3.571,3.571,0,0,0-.746.3l-.5.244V13.9H23.7Z" fill="#0c7f00"/>
  </g>
</svg>
