<svg xmlns="http://www.w3.org/2000/svg" width="18.44" height="18.43" viewBox="0 0 18.44 18.43">
  <g id="noun-truck-3549571" transform="translate(-0.5 -0.5)">
    <path id="Path_73104" data-name="Path 73104" d="M18.94,9.53l-3.4-5.67a1.9,1.9,0,0,0-1.62-.92H11V2.39A1.888,1.888,0,0,0,9.11.5H2.39A1.888,1.888,0,0,0,.5,2.39V15.27H.52v.25a.97.97,0,0,1-.01.17.615.615,0,0,0-.01.13,3.105,3.105,0,0,0,3.07,3.11h.04A3.105,3.105,0,0,0,6.6,16.67l.05-.18h6.13l.06.18a3.11,3.11,0,0,0,6.1-.85,2.452,2.452,0,0,0-.02-.27l-.04-.28h.06ZM10.99,4.27h2.92a.61.61,0,0,1,.48.28l2.7,4.5h-6.1ZM1.83,2.39a.559.559,0,0,1,.56-.56H9.1a.559.559,0,0,1,.56.56V9.05H1.83ZM4.87,17.08a1.813,1.813,0,0,1-1.26.52,1.775,1.775,0,1,1,1.26-.52Zm12.21,0a1.8,1.8,0,0,1-1.26.52,1.775,1.775,0,1,1,1.26-.52Zm.52-3.84-.36-.18a3.024,3.024,0,0,0-1.41-.34,3.108,3.108,0,0,0-2.99,2.25l-.06.19H6.65l-.05-.19a3.11,3.11,0,0,0-3.85-2.13,2.633,2.633,0,0,0-.55.22l-.37.18V10.38H17.6Z" fill="#fff"/>
  </g>
</svg>
