<svg xmlns="http://www.w3.org/2000/svg" width="22.166" height="26.122" viewBox="0 0 22.166 26.122">
  <g id="noun-waste-2025378" transform="translate(-124.883 -13.999)">
    <path id="Path_73105" data-name="Path 73105" d="M145.951,17.35h-6.345V15.015A1.014,1.014,0,0,0,138.589,14h-5.329a1.014,1.014,0,0,0-1.016,1.016V17.35H125.9a1.014,1.014,0,0,0-1.016,1.016v4.01a1.014,1.014,0,0,0,1.016,1.016h1.016V39.1a1.014,1.014,0,0,0,1.016,1.016H144a1.014,1.014,0,0,0,1.016-1.016V23.366h1.016a1.014,1.014,0,0,0,1.016-1.016v-4.01a1.124,1.124,0,0,0-1.1-.989ZM134.249,16H137.6V17.35h-3.351Zm8.707,22.084H128.893V23.365h14.063Zm2.005-16.728H126.888V19.355h18.074Z" transform="translate(0)" fill="#0c7f00"/>
    <path id="Path_73106" data-name="Path 73106" d="M275.977,262.083a1.014,1.014,0,0,0,1.016-1.016v-8.048a1.016,1.016,0,0,0-2.033,0v8.076a.991.991,0,0,0,1.016.989Z" transform="translate(-142.717 -226.329)" fill="#0c7f00"/>
    <path id="Path_73107" data-name="Path 73107" d="M384.617,262.083a1.014,1.014,0,0,0,1.016-1.016v-8.048a1.016,1.016,0,0,0-2.033,0v8.076a1.027,1.027,0,0,0,1.016.989Z" transform="translate(-246.028 -226.329)" fill="#0c7f00"/>
  </g>
</svg>
