<svg xmlns="http://www.w3.org/2000/svg" width="38" height="38" viewBox="0 0 38 38">
  <g id="Group_13173" data-name="Group 13173" transform="translate(-15 -424.832)">
    <circle id="Ellipse_1416" data-name="Ellipse 1416" cx="19" cy="19" r="19" transform="translate(15 424.832)" fill="#fff"/>
    <g id="noun-waste-2025378" transform="translate(-98.993 420.68)">
      <path id="Path_73105" data-name="Path 73105" d="M140.324,16.455h-4.65V14.744a.743.743,0,0,0-.745-.745h-3.906a.743.743,0,0,0-.745.745v1.711h-4.65a.743.743,0,0,0-.745.745v2.939a.743.743,0,0,0,.745.745h.745V32.4a.743.743,0,0,0,.745.745h11.777a.743.743,0,0,0,.745-.745V20.864h.745a.743.743,0,0,0,.745-.745V17.18a.824.824,0,0,0-.805-.725Zm-8.576-.986H134.2v.986h-2.456Zm6.382,16.186H127.822V20.864H138.13Zm1.47-12.26H126.353v-1.47H139.6Z" transform="translate(0)" fill="#1d1d1d"/>
      <path id="Path_73106" data-name="Path 73106" d="M275.706,259.39a.743.743,0,0,0,.745-.745v-5.9a.745.745,0,1,0-1.49,0v5.919a.726.726,0,0,0,.745.725Z" transform="translate(-144.683 -229.447)" fill="#1d1d1d"/>
      <path id="Path_73107" data-name="Path 73107" d="M384.346,259.39a.743.743,0,0,0,.745-.745v-5.9a.745.745,0,1,0-1.49,0v5.919a.752.752,0,0,0,.745.725Z" transform="translate(-249.417 -229.447)" fill="#1d1d1d"/>
    </g>
  </g>
</svg>
