<svg xmlns="http://www.w3.org/2000/svg" width="19.003" height="19" viewBox="0 0 19.003 19">
  <path id="noun-meter-indicator-4727445" d="M171.564,92.062a9.5,9.5,0,1,0,9.5,9.5A9.5,9.5,0,0,0,171.564,92.062Zm-5.025,15.2a7.579,7.579,0,0,1,10.054,0A7.58,7.58,0,0,1,166.539,107.265Zm11.316-1.427a9.481,9.481,0,0,0-5.342-2.327V97.764a.95.95,0,0,0-1.9,0v5.747a9.5,9.5,0,0,0-5.342,2.327,7.6,7.6,0,0,1-1.254-3.324h.895a.951.951,0,0,0,0-1.9h-.895a7.56,7.56,0,0,1,1.543-3.706V96.9l.626.637a.955.955,0,0,0,1.35-1.35l-.628-.626a7.524,7.524,0,0,1,3.706-1.54v.892a.95.95,0,1,0,1.9,0v-.892a7.557,7.557,0,0,1,3.717,1.54l-.64.626a.959.959,0,0,0,0,1.35.948.948,0,0,0,1.35,0l.631-.626a7.578,7.578,0,0,1,1.537,3.706h-.894a.95.95,0,0,0,0,1.9h.892a7.532,7.532,0,0,1-1.251,3.324Z" transform="translate(-162.06 -92.062)" fill="#fff"/>
</svg>
